<?xml version="1.0" encoding="utf-8"?>
<!-- Generator: Adobe Illustrator 16.0.0, SVG Export Plug-In . SVG Version: 6.00 Build 0)  -->
<!DOCTYPE svg PUBLIC "-//W3C//DTD SVG 1.1//EN" "http://www.w3.org/Graphics/SVG/1.1/DTD/svg11.dtd">
<svg version="1.1" id="Layer_1" xmlns="http://www.w3.org/2000/svg" xmlns:xlink="http://www.w3.org/1999/xlink" x="0px" y="0px"
	 width="124px" height="67.5px" viewBox="0 0 124 67.5" enable-background="new 0 0 124 67.5" xml:space="preserve">
<g>
	<path fill="#FFFFFF" d="M74.535,6.353C69.078,4.212,63.081,5.82,59.378,9.935L44.932,25.41c-0.196,0.207-0.104,0.469,0.135,0.504
		l3.846,0.236c0.309,0.018,0.346,0.285,0.191,0.467l-9.407,10.148c-0.165,0.176,0.033,0.451,0.26,0.381l13.431-4.244
		c0.284-0.098,0.503,0.154,0.382,0.377v0.002l-1.795,3.176l0,0c-0.095,0.18,0.081,0.428,0.308,0.412l19.362-4.316
		c4.628-0.729,8.761-3.818,10.597-8.493C85.004,17.04,81.548,9.116,74.535,6.353z M76.682,20.328
		c-0.009,0.005-0.016,0.011-0.024,0.015l-4.326,1.766l-0.133,0.058l-1.054,4.819c-0.071,0.162-0.28,0.203-0.423,0.064l-3.151-3.726
		l-0.018-0.01l-17.773,7.628c-0.013,0.008-0.03,0.012-0.048,0.012c-0.066,0-0.12-0.055-0.12-0.121c0-0.039,0.018-0.072,0.05-0.096
		l15.366-11.5l-1.945-4.438c-0.096-0.203,0.082-0.418,0.321-0.359l0,0l4.709,1.16l3.656-3.256v0.002
		c0.157-0.126,0.371-0.036,0.411,0.161l0.356,4.888l4.219,2.466C76.937,19.976,76.907,20.244,76.682,20.328z"/>
	<g>
		<g>
			<path fill="#FFFFFF" d="M33.44,58.705h-3.259l2.55-11.943l3.554-1.307L33.44,58.705z"/>
			<path fill="#FFFFFF" d="M24.083,55.352c-0.018,0.082-0.033,0.232-0.033,0.314c0,0.531,0.363,0.713,1.328,0.713
				c0.863,0,2.092-0.215,2.807-0.463v2.441c-0.913,0.332-2.343,0.514-3.489,0.514c-2.69,0-3.985-0.73-3.985-3.172
				c0-2.395,1.112-6.129,5.399-6.129c2.722,0,3.535,1.23,3.535,2.525C29.645,53.773,28.201,55.201,24.083,55.352z M25.859,51.863
				c-0.78,0-1.229,0.646-1.411,1.395c1.543,0,2.01-0.48,2.01-0.881C26.458,52.096,26.207,51.863,25.859,51.863z"/>
			<path fill="#FFFFFF" d="M39.079,49.143c-1.111,0-1.826-0.715-1.826-1.695c0-1.277,0.897-1.992,2.008-1.992
				c1.131,0,1.829,0.715,1.829,1.678C41.09,48.428,40.209,49.143,39.079,49.143z"/>
			<path fill="#FFFFFF" d="M37.073,49.871h3.354l-1.695,8.701h-3.389l1.195-6.111"/>
			<path fill="#FFFFFF" d="M50.092,49.871c-1.163,2.922-2.442,5.779-4.069,8.701H41.87c-0.531-2.758-0.765-5.664-0.697-8.701h3.389
				c-0.067,1.428-0.05,2.889,0.031,4.25c0.018,0.365,0.052,0.713,0.084,1.064h0.019c0.148-0.352,0.313-0.699,0.464-1.064
				c0.581-1.43,1.111-2.988,1.513-4.25H50.092z"/>
			<path fill="#FFFFFF" d="M52.85,55.352c-0.016,0.082-0.034,0.232-0.034,0.314c0,0.531,0.366,0.713,1.328,0.713
				c0.864,0,2.094-0.215,2.808-0.463v2.441c-0.914,0.332-2.342,0.514-3.487,0.514c-2.691,0-3.987-0.73-3.987-3.172
				c0-2.395,1.112-6.129,5.398-6.129c2.724,0,3.536,1.23,3.536,2.525C58.411,53.773,56.969,55.201,52.85,55.352z M54.626,51.863
				c-0.779,0-1.23,0.646-1.414,1.395c1.547,0,2.012-0.48,2.012-0.881C55.224,52.096,54.976,51.863,54.626,51.863z"/>
			<path fill="#FFFFFF" d="M64.925,52.941c-0.184-0.049-0.55-0.1-0.815-0.1c-0.748,0-1.346,0.748-1.612,2.127l-0.694,3.604h-3.392
				l1.696-8.701h2.542l0.082,1.16c0.78-0.963,1.396-1.461,2.343-1.461c0.431,0,0.664,0.033,0.778,0.066L64.925,52.941z"/>
			<path fill="#FFFFFF" d="M75.52,49.871c-1.496,3.885-2.824,6.725-4.153,8.686c-1.926,2.875-3.621,3.539-5.365,3.539
				c-0.516,0-1.062-0.135-1.329-0.268l0.532-2.508h1.163c0.581,0,0.829-0.234,1.212-0.748c-0.647-2.34-0.964-5.613-0.931-8.701
				h3.406c-0.069,1.41-0.051,2.873,0.033,4.201c0.017,0.381,0.048,0.746,0.081,1.113h0.018c0.149-0.352,0.314-0.699,0.465-1.08
				c0.565-1.379,1.114-2.957,1.478-4.234H75.52z"/>
			<path fill="#FFFFFF" d="M88.544,58.572H84.97l0.849-4.385h-3.024l-0.848,4.385h-3.569l2.258-11.594h3.572l-0.813,4.137h3.023
				l0.813-4.137H90.8L88.544,58.572z"/>
			<path fill="#FFFFFF" d="M93.806,55.352c-0.017,0.082-0.031,0.232-0.031,0.314c0,0.531,0.365,0.713,1.326,0.713
				c0.865,0,2.095-0.215,2.809-0.463v2.441c-0.913,0.332-2.342,0.514-3.489,0.514c-2.69,0-3.986-0.73-3.986-3.172
				c0-2.395,1.113-6.129,5.398-6.129c2.725,0,3.54,1.23,3.54,2.525C99.372,53.773,97.924,55.201,93.806,55.352z M95.583,51.863
				c-0.781,0-1.228,0.646-1.411,1.395c1.545,0,2.012-0.48,2.012-0.881C96.184,52.096,95.932,51.863,95.583,51.863z"/>
			<path fill="#FFFFFF" d="M105.88,52.941c-0.182-0.049-0.545-0.1-0.812-0.1c-0.746,0-1.346,0.748-1.611,2.127l-0.698,3.604h-3.386
				l1.691-8.701h2.541l0.084,1.16c0.781-0.963,1.395-1.461,2.341-1.461c0.434,0,0.665,0.033,0.782,0.066L105.88,52.941z"/>
			<path fill="#FFFFFF" d="M110.182,58.871c-2.641,0-3.935-1.131-3.935-3.389c0-2.508,1.245-5.912,5.631-5.912
				c2.624,0,3.936,1.162,3.936,3.389C115.813,55.518,114.567,58.871,110.182,58.871z M111.445,52.244
				c-1.362,0-1.728,2.076-1.728,3.008c0,0.746,0.315,0.961,0.932,0.961c1.343,0,1.692-2.076,1.692-3.02
				C112.342,52.461,112.043,52.244,111.445,52.244z"/>
		</g>
		<path fill="#FFFFFF" d="M16.602,49.92l2.258-2.168c-0.881-0.529-2.09-0.773-3.598-0.773h-0.763h-3.556L8.687,58.572h3.552h0.95
			c5.23,0,7.321-3.654,7.321-7.457c0-0.986-0.212-1.777-0.623-2.391L16.602,49.92z M13.437,55.814h-0.665l1.195-6.113h0.932
			c1.411,0,1.926,0.834,1.926,1.979C16.824,53.988,15.544,55.814,13.437,55.814z"/>
	</g>
</g>
</svg>
